# xmcd
#
# Track frame offsets: 
#        150
#        24562
#        46466
#        67720
#        94593
#        117883
#        145201
#        165997
#
# Disc length: 2513 seconds
#
# Revision: 0
# Processed by: cddbd v1.5.2PL0 Copyright (c) Steve Scherf et al.
# Submitted via: ExactAudioCopyFreeDBPlugin 1.0
#
DISCID=5c09cf08
DTITLE=The Isley Brothers - - 1978 - Showdown [2008 Edition]
DYEAR=2008
DGENRE=
TTITLE0=Showdown (Part 1 and 2)
TTITLE1=Groove With you
TTITLE2=Ain`t Givin`up No Love
TTITLE3=Rockin` With Fire  (Part 1 and 2)
TTITLE4=Take Me to the Next Face  (Part 1 and 2)
TTITLE5=Coolin`Me Out  (Part 1 and 2)
TTITLE6=Fun and Games
TTITLE7=Love Fever  (Part 1 and 2)
EXTD=
EXTT0=
EXTT1=
EXTT2=
EXTT3=
EXTT4=
EXTT5=
EXTT6=
EXTT7=
PLAYORDER=
